<?xml version="1.0" standalone="no"?>
<svg viewBox="-350 -150 1500 1500" style="width: 487.5px; height: 487.5px; justify-content: center; align-self: center; transform: scale(1, 1);" xmlns="http://www.w3.org/2000/svg"><rect x="-350" y="-150" width="100%" height="100%" fill="#FFD55A" rx="30"></rect><g transform="rotate(0 410.0790100097656 611.3209457397461)"><g id="body_Killer" data-name="body/Killer" transform="translate(0 459)"><path id="_Skin" data-name="âœ‹ Skin" d="M333.257,13.133c66.555-28.657,115.711-6.41,131.71,28.3,12.66,27.464,12.909,85.568,37.671,108.589C623.17,238.98,649.454,393.987,674.058,532.57a1675.492,1675.492,0,0,1,20.873,202.263c.26,6.216-5.668,12.2-11.911,11.913-178.027-8.6-356.421-7.954-534.442-.258-10.505.076-21.155-.894-31.072-4.623-13.973,5.476-22.82-11.377-22.466-23.037-1.185-7.736-8.934-13.1-14.576-18.044-13.355-11.081-24.154-23.8-31.51-39.648-10.527-21.48-11.972-45.117-21.346-66.665-4.252-12.445-5.878-25.44-7.89-38.35-5.24-12.956-6.892-26.855-7.457-40.618-19.755-12.415-10.145-42.861-8.33-62.047,3.1-22.271,6.4-44.542,10.426-66.665C37.93,234.556,145.267,147.6,292.683,116.907,322.286,98.049,322.286,17.856,333.257,13.133Z" transform="translate(74 -55.873)" fill="#d08b5b"></path><path id="_Knife" data-name="ðŸ”ª Knife" d="M380.3,296.472a117.644,117.644,0,0,1-15.5-1.016c-1.867-.251-3.807-.561-5.764-.921l-1.435-.272-1.431-.287-.041-.27-.019-.07a.172.172,0,0,0-.166-.1.294.294,0,0,0-.23.121l-.031.055-.014.058-.01.1-1.427-.31a180.868,180.868,0,0,1-18.264-5.161,393.5,393.5,0,0,1-52.03-22.19,493.7,493.7,0,0,1-91.71-60c-16.656-13.743-32.578-28.756-44.59-40.3.337-.948.672-1.906.995-2.832l0-.014c.725-2.077,1.41-4.038,2.14-5.945,2.109-5.5,4.369-11.584,7.11-19.148l1.388-3.841,1.551-4.312.332-.95,1.453-4.273c2-5.812,4.361-11.824,9.247-15.865a37.553,37.553,0,0,1,3.682-2.631l.639-.407,1.289-.8,1.077,1.27,1.093,1.263a289.93,289.93,0,0,0,25,24.657l2.5,2.23,2.408,2.134,12.267,10.834,5.469,4.786c5.8,5.05,11.717,10.15,17.443,15.082l.046.04c5.089,4.383,10.351,8.915,15.5,13.393,25.577,22.229,55.817,48.57,86.171,75.4,16.745,14.793,31.5,27.946,45.11,40.21-.531-.027-1.089-.041-1.705-.041-1.468,0-2.968.082-4.418.161-1.339.073-2.72.148-4.087.161C380.993,296.47,380.64,296.472,380.3,296.472ZM33.4,35.486h0a13.857,13.857,0,0,0-5.432-3.118l-.377-.137-1.727-.611L19.8,29.412,8.357,25.256l-.213-.074c-.5-.164-1.153-.338-1.849-.522-2.081-.55-4.67-1.234-5.667-2.324A3.042,3.042,0,0,1,.052,19.76l.027-.2.13-.8.1-.553.116-.585A40.239,40.239,0,0,1,4.879,6.206a12.05,12.05,0,0,1,4.9-4.844A13.459,13.459,0,0,1,15.985,0C20.07,0,24.53,1.385,27.529,2.427l.292.1,1.156.413,1.147.424,3.465,1.31,1.562.6c5.917,2.326,11.71,5.159,17.311,7.9l.008,0c2.23,1.091,4.536,2.219,6.819,3.3l1.607.754-1.751.77-1.172.522-1.173.529A92.468,92.468,0,0,0,43.98,25.913,42.139,42.139,0,0,0,33.4,35.485Z" transform="translate(318 88)" fill="#fdea6b"></path><path id="_Ink" data-name="ðŸ– Ink" d="M129.279,684.007a7.516,7.516,0,0,1-5.589-2.2,5.716,5.716,0,0,1-1.4-4.5l.192-2.1c.82-8.852,1.948-19.079,4.959-28.42-.453.013-.853.019-1.223.019a18.71,18.71,0,0,1-5.968-.809,38.761,38.761,0,0,1-9.25-4.929,65.336,65.336,0,0,1-8.776-7.11,73.864,73.864,0,0,1-7.493-8.46,108.3,108.3,0,0,1-11.518-19.207,187.738,187.738,0,0,1-8.293-20.842c-4.754-14.116-9.33-28.962-13.989-45.387L56.29,523.578c-6.018-21.39-11.709-42.362-15.2-63.768a4.036,4.036,0,0,1-1.589,1.239,24.018,24.018,0,0,1-9.826,2.193,22.507,22.507,0,0,1-10.1-2.435,29.457,29.457,0,0,1-8.422-6.429,38.313,38.313,0,0,1-6.222-9.108A39.78,39.78,0,0,1,1.435,434.8c-1.67-9.162-1.5-18.642-1.333-27.81v-.045c.02-1.093.04-2.223.057-3.332L.175,402.5c.027-1.989.051-4.061.073-5.89.117-9.847.238-20.029.749-30.04.5-9.838,1.456-19.857,2.852-29.779,1.362-9.676,3.176-19.53,5.394-29.289C11.4,298,14,288.315,16.977,278.727c2.892-9.326,6.215-18.827,9.878-28.238,7.534-19.338,15.018-36.441,22.881-52.285,4.373-8.812,8.912-17.307,13.492-25.25C68.1,164.5,73.18,156.4,78.326,148.86a228.934,228.934,0,0,1,16.432-21.467,152.04,152.04,0,0,1,19.387-18.8c13.529-10.818,29.534-20.042,48.931-28.2,18.166-7.642,37.088-13.663,54.83-19.03A539.826,539.826,0,0,1,280,46.139a4.785,4.785,0,0,1,.829-.074,3.428,3.428,0,0,1,3.051,1.655c.669,1.113,1.336,2.311,2.1,3.77a23.257,23.257,0,0,1,7.08-2.364c1.116-.247,2.168-.479,3.071-.756,2.6-.805,5.809-1.519,9.206-2.275,8.474-1.885,18.074-4.021,23.153-8.545a44.256,44.256,0,0,0,9.536-12.419,111.887,111.887,0,0,0,6.158-14.466l.666-1.835c2.207-6.1,4.549-8.83,5.891-8.83a.936.936,0,0,1,.752.382c.773.962.754,3.615-.053,7.278l-.36,1.627c-.989,4.433-2.117,9.182-3.668,13.87a59.553,59.553,0,0,1-5.911,13c-7.5,12-25.523,17.523-40.007,21.962-2.376.728-4.62,1.416-6.743,2.107a4.014,4.014,0,0,1,.009,1.031,58.269,58.269,0,0,1,13.886,4.11,90.819,90.819,0,0,1,22.812,14.287,51.239,51.239,0,0,1,8.312,9.173l23.481-10.2c1.335-.579,2.7-1.188,4.015-1.777l.031-.014c6.379-2.853,12.975-5.8,19.933-6.919a27.327,27.327,0,0,1,4.3-.327,33.033,33.033,0,0,1,11.2,1.975,23.457,23.457,0,0,1,9.342,5.957A14.924,14.924,0,0,1,416,89.35a5.212,5.212,0,0,1-3.01,4.26c.865-.072,1.727-.108,2.562-.108.34,0,.682.006,1.017.018a19.67,19.67,0,0,1,8.066,2.212A15.944,15.944,0,0,1,431,101.243a9.321,9.321,0,0,1,1.432,4.134,9.435,9.435,0,0,1-.86,4.713,1.823,1.823,0,0,1-1.694,1.206,2.882,2.882,0,0,1-2.667-2.385c-.791-6.624-4.692-9.844-11.927-9.844-4.177,0-8.882,1.072-12.662,1.934a228.439,228.439,0,0,0-25.21,7.229A119.924,119.924,0,0,0,352.2,120.389c-8.194,5.308-15.708,11.665-15.209,22.14a.192.192,0,0,1-.052.149.269.269,0,0,1-.193.083.2.2,0,0,1-.186-.113,12.051,12.051,0,0,1-1.044-6.722,17.6,17.6,0,0,1,2.286-6.459,37.69,37.69,0,0,1,9.359-10.339c8.478-6.579,19.01-12.136,32.2-16.99a169.766,169.766,0,0,1,17.906-5.328l1.395-.342c.708-.171,1.436-.352,2.14-.526l.006,0c2.865-.709,5.824-1.442,8.783-1.922a4.268,4.268,0,0,1-3.092-3.121l-.068-.249a13.567,13.567,0,0,0-4.987-8.057,13.754,13.754,0,0,0-8.156-2.284c-3.859,0-8.473,1.016-14.1,3.106-4.814,1.787-9.576,4.072-13.4,5.909l-.013.006c-1.87.9-3.484,1.672-4.888,2.291-2.442,1.075-4.936,2.156-7.347,3.2l-.09.039c-5.747,2.49-11.689,5.065-17.443,7.78l-1.056.5a76.084,76.084,0,0,0-9.409,5.189,31.16,31.16,0,0,0-7.846,7.207,24.72,24.72,0,0,0-4.27,9.245,33.315,33.315,0,0,0-.655,10.012c.488,6.833,2.527,13.816,4.5,20.57,1.05,3.6,2.041,6.991,2.766,10.243a69.246,69.246,0,0,1,2,13.74,33.846,33.846,0,0,1-1.573,9.155l0,.009c-.15.558-.3,1.135-.452,1.705l-.542,2.121a.916.916,0,0,1,.692.384.709.709,0,0,1,.117.636,129.718,129.718,0,0,1-7.495,18.581c-2.851,5.876-5.937,11.511-9.386,17.741-7.952,14.371-14.271,25.162-20.489,34.988-12.679,20.034-26.541,39.922-41.2,59.109-14.425,18.879-29.945,37.5-46.129,55.351-6.741,7.436-13.836,14.771-20.7,21.865-8.879,9.181-18.061,18.675-26.573,28.483a176.942,176.942,0,0,0-19.07,25.811,124.931,124.931,0,0,0-7.86,15.54l-.442,1.063c-1.815,4.335-3.6,8.213-7.058,11.767a3.411,3.411,0,0,1-5.64-1.49c-1.08-5.06-.266-10.717,2.488-17.3a110.785,110.785,0,0,1,8.8-15.862l.1-.156.469-.745a226.278,226.278,0,0,1,22.239-29.191c2.171-2.465,4.454-4.981,6.98-7.691a165.475,165.475,0,0,1-21.092,3.857l-.011,0c-3.731.516-7.589,1.05-11.337,1.713a252.2,252.2,0,0,0-32.649,7.61,143.192,143.192,0,0,0-28.08,12.25,109.358,109.358,0,0,0-12.389,8.15c-.29.219-.577.452-.855.679l-.064.052-.173.141c5.484,13.779,9.947,28.207,14.262,42.161l0,.009c.718,2.322,1.461,4.723,2.2,7.08,3.757,12.069,7.339,23.9,10.347,33.888L77.1,554.27c1.023,3.4,2.034,6.922,3.012,10.33l.009.03C84.5,579.9,89.033,595.68,96.956,609.27a69.527,69.527,0,0,0,16.379,18.93,60.394,60.394,0,0,0,10.139,6.34,43.661,43.661,0,0,1,4.6,2.937l.006,0c.552.386,1.122.785,1.691,1.167a6.37,6.37,0,0,1,4.842-2.213,7.31,7.31,0,0,1,1.153.094l.285.051a24.539,24.539,0,0,0,4.712.447,33.736,33.736,0,0,0,9.682-1.555,59.878,59.878,0,0,0,9.116-3.682c8.95-4.415,15.686-8.685,21.2-13.439,12.1-10.442,22.2-23.419,31.974-35.968l.757-.972a793.89,793.89,0,0,0,91.029-148.96c12.058-25.608,23.982-53.019,35.44-81.472,6.083-15.087,11.411-28.589,16.29-41.278l.7-1.847c.869-2.316,1.731-4.7,2.565-7.01,3.81-10.547,7.75-21.454,14-30.594a.725.725,0,0,1,.23-.239,1.931,1.931,0,0,1,.281-.881c1.895-3.029,5.213-4.363,8.422-5.652l.006,0c.8-.321,1.625-.653,2.412-1.005,4.4-1.978,8.867-3.978,13.187-5.912l.082-.037c.87-.39,1.832-.762,2.849-1.155,2.993-1.156,6.384-2.466,8.341-4.685,2.182-2.455,3.309-6.377,4.3-9.838.364-1.265.707-2.459,1.086-3.544,3.225-9.209,6.774-18.468,10.2-27.422l0-.01.111-.288c.726-1.9,1.44-3.851,2.13-5.742,2.294-6.287,4.666-12.788,8-18.567a28.09,28.09,0,0,1,6.669-7.787,70.1,70.1,0,0,1,8.484-5.741l1.332-.8c2.519-1.535,5.292-3.42,6.314-6.359a7.871,7.871,0,0,0-.883-6.753,14.478,14.478,0,0,0-5.067-4.877,14.686,14.686,0,0,0-7.47-1.953,26.091,26.091,0,0,0-10.11,2.381,82.047,82.047,0,0,0-9.2,4.8c-2.325,1.356-4.667,2.816-6.932,4.227a120.7,120.7,0,0,1-16.449,9.1.161.161,0,0,1-.058.011.179.179,0,0,1-.159-.124.186.186,0,0,1,.037-.207c5.877-5.384,12.924-9.928,19.739-14.323l.02-.013c.818-.527,1.663-1.072,2.487-1.607l1.884-1.228c4.514-2.953,10.5-6.462,16.82-7.39a1.035,1.035,0,0,1-.771-1.1,1.238,1.238,0,0,1,1.1-1.1,130.613,130.613,0,0,1,14.953-.665c6.874-.041,13.982-.084,20.868-1.706a50.288,50.288,0,0,0,14.728-6.124A60.11,60.11,0,0,0,505.865,125.8a102.63,102.63,0,0,0,9.464-11.815c2.52-3.622,5.02-7.571,8.106-12.8,1.189-2.018,2.384-4.072,3.539-6.058,1.748-3,3.555-6.11,5.371-9.144.415-.7.86-1.518,1.362-2.5a27.081,27.081,0,0,1-7.935-3.493,55.125,55.125,0,0,1-6.636-4.9,42.09,42.09,0,0,1-7.43-8.358,56.863,56.863,0,0,1-5.329-9.842,65.676,65.676,0,0,1-5.044-25.212,79.977,79.977,0,0,1,.953-12.908,87.654,87.654,0,0,1,2.921-12.581,1.086,1.086,0,0,1,1.063-.769,1.019,1.019,0,0,1,1.017.769c1.49,5.349,2.48,10.964,3.437,16.395,1.555,8.824,3.163,17.947,6.962,26.225A47.469,47.469,0,0,0,527.8,63.09a31.684,31.684,0,0,0,6.92,5.25,28.921,28.921,0,0,0,2.808,1.3,13.542,13.542,0,0,1,5.232,3.219,4.8,4.8,0,0,1,.36.43,6.877,6.877,0,0,1,.915-.064,4.485,4.485,0,0,1,2.416.637l.189.127.04-.059c-4.075-2.78-8.088-5.475-12.37-7.871a.951.951,0,0,1-.511-1.105,1.172,1.172,0,0,1,1.34-.865l2.822.5c9.693,1.727,19.1,3.622,27.648,7.781a203.388,203.388,0,0,1,27.37,16.13,251.835,251.835,0,0,1,46.391,41.96,255.432,255.432,0,0,1,32.308,47.721,298,298,0,0,1,21.681,53.429c3.1,10.354,5.842,21.04,8.394,32.667,2.271,10.35,4.333,21.207,6.3,33.19,3.66,22.248,6.423,44.992,9.095,66.987l.089.732c.331,2.721.672,5.534,1.01,8.292,2.752,22.551,5.269,45.553,7.483,68.367l.6,6.224c.635,6.728,1.312,13.56,1.966,20.168l.011.107c.458,4.619.976,9.855,1.463,14.9a11.4,11.4,0,0,1,.96,10.111c.964,10.522,1.707,19.85,2.271,28.519,1.58,24.575,2.6,49.442,3.04,73.91.3,17.116-.037,34.5-.364,51.318v.034c-.15,7.736-.306,15.736-.4,23.608a7.671,7.671,0,0,1-2.559,5.908,8.412,8.412,0,0,1-5.535,1.967,8.543,8.543,0,0,1-5.574-1.971,7.761,7.761,0,0,1-2.642-5.9c-.449-19.4-1.577-39.115-2.669-58.184-.462-8.075-.94-16.425-1.361-24.665-.282-5.5-.559-11-.867-17.1-1.053-20.876-2.141-42.462-3.442-63.691-.154-2.445-.3-4.961-.451-7.691a33.192,33.192,0,0,1-5.817,1.4c-.639.114-1.242.222-1.831.339l-.6.123a127.477,127.477,0,0,1-14.827,2.252l-1.616.137c-1.829.126-6.233.262-11.579.262-7.16,0-20.562-.254-29.879-1.951,1.048,16.924,2.172,34.945,3.4,52.82.826,12.016,1.258,24.239,1.675,36.059.28,7.929.57,16.128.976,24.2.457,9.027,1.058,19.534,2.4,29.991.566,4.4,1.178,9.071,1.895,13.619l.366,2.261q.089.539.18,1.064v.006c.593,3.473,1.105,6.472-.391,9.62a8.122,8.122,0,0,1-.943,7.17,6,6,0,0,1-5.1,2.465c-.214,0-.435-.009-.657-.025-35.3-2.642-72.478-4.016-113.651-4.2C530.635,677,527.011,677,523.4,677c-47.536,0-95.843,1.462-142.559,2.876l-.12,0c-14.055.425-28.589.865-42.884,1.258l-17.686.479-2.23.061c-26.587.728-54.08,1.481-81.128,1.481-38.8,0-70.748-1.542-100.55-4.854a5.23,5.23,0,0,1-2.211,4.27A8.073,8.073,0,0,1,129.279,684.007ZM37.246,451.536a4.059,4.059,0,0,1,2.779,1.164c-.188-1.335-.368-2.719-.55-4.23l-.074.07c-1.22,1.113-2.482,2.263-3.775,3.339A4.167,4.167,0,0,1,37.246,451.536Zm594.025-84.87a.182.182,0,0,1,.185.174l.04.27c2.935.605,5.839,1.1,8.63,1.48a117.7,117.7,0,0,0,15.485,1.015c.354,0,.712,0,1.064,0,1.367-.012,2.75-.088,4.087-.161h.011c1.448-.079,2.944-.16,4.41-.16.6,0,1.16.013,1.7.041-13.617-12.272-28.373-25.426-45.11-40.21-30.275-26.76-60.549-53.132-86.17-75.4-5.169-4.494-10.446-9.039-15.549-13.434-7.531-6.486-15.319-13.194-22.913-19.868l-12.267-10.834c-10.995-9.723-21.639-19.356-31-30.283l-1.077-1.27a49.709,49.709,0,0,0-5.61,3.839c-5.4,4.469-7.711,11.305-9.943,17.917l0,.006c-.353,1.046-.718,2.128-1.086,3.166l-.167.472c-3.1,8.631-6.422,17.812-9.881,26.83-.733,1.914-1.419,3.879-2.146,5.959-.324.929-.658,1.885-.994,2.831,12.014,11.546,27.94,26.562,44.591,40.3a493.653,493.653,0,0,0,91.709,60A393.593,393.593,0,0,0,611.3,361.53,177.275,177.275,0,0,0,630.986,367l.011-.1A.283.283,0,0,1,631.271,366.666ZM291.31,73.132h0A13.456,13.456,0,0,0,285.1,74.5a12.051,12.051,0,0,0-4.9,4.844,39.57,39.57,0,0,0-4.572,12l-.1.554-.025.149c-.207,1.229-.42,2.5.445,3.43,1,1.089,3.584,1.774,5.664,2.324.833.22,1.55.41,2.065.6l11.444,4.155,5.715,2.084c.366.134.737.264,1.129.4,2.39.839,5.1,1.79,6.751,3.588a44.18,44.18,0,0,1,12.486-10.778,126.388,126.388,0,0,1,15.014-7.471c-2.824-1.314-5.668-2.705-8.418-4.051l-.013-.007c-6.094-2.981-12.4-6.064-18.877-8.5l-3.464-1.31c-4.682-1.748-9.636-3.365-14.14-3.366ZM347.329,265.01H347.3a24.83,24.83,0,0,1-12.486-3.863,38.269,38.269,0,0,1-9.845-8.806,1.1,1.1,0,0,1-.179-1.2,1.067,1.067,0,0,1,.95-.618,1.159,1.159,0,0,1,.75.3c5.752,4.869,12.186,7.28,19,9.832.707.265,1.508.565,2.282.859a1.948,1.948,0,0,1,1.21,2.177A1.573,1.573,0,0,1,347.329,265.01Zm21.381-108.464a.409.409,0,0,1-.335-.162.308.308,0,0,1-.03-.3,41.509,41.509,0,0,1,7.642-12.894,61.216,61.216,0,0,1,11.355-10.1c8.759-6.145,19.107-10.688,27.143-13.96l.638-.256A39.008,39.008,0,0,1,429,115.928c5.868,0,10.551,1.972,13.916,5.862a19.034,19.034,0,0,1,4.242,13.719,12.139,12.139,0,0,1-4.491,8.681,2.937,2.937,0,0,1-3.9-.5,1.888,1.888,0,0,1-.1-1.832,25.577,25.577,0,0,0,1.858-7.23,13.052,13.052,0,0,0-1.007-6.869,9.983,9.983,0,0,0-6.541-5.22,16.551,16.551,0,0,0-4.735-.658,29.688,29.688,0,0,0-9.436,1.8c-3.125,1.056-6.23,2.452-8.97,3.683-.544.245-1.056.475-1.574.7l-2.091.922c-14.093,6.256-28.346,13.9-37.134,27.389A.385.385,0,0,1,368.711,156.546Z" transform="translate(42 14.629)"></path></g><g transform="translate(225 0)"><g><g><path id="_Skin" data-name="âœ‹ Skin" d="M340.529,155c-2.153-18.915.633-58.451.82-60.853,1.18-15.185-5.935-75.148-19.385-69.623C299.4,6.666,269.351,2.722,241.251.838,182.883-3.076,120.791,5.909,75.72,45.189c-22.289,20.4-43.988,50.068-42.244,80.96C13.226,155.431-15.324,195.6,9.908,229.831c8.577,10.937,22.208,15.01,32.982,23.293,21.672,17.48,35.268,42.566,57.145,59.942,57.96,52.083,156.377,62.963,213.323,3.723,44.035-42.9,36.915-107.09,29.169-161.786C337.321,118.23,344.728,191.9,340.529,155Z" transform="translate(65.001 149)" fill="#d08b5b"></path><path id="_Ink" data-name="ðŸ– Ink" d="M250.311,443.271a134.042,134.042,0,0,1-19.031-1.4,105.442,105.442,0,0,1-21.491-5.2,40.754,40.754,0,0,1-10.072-5.32,45.226,45.226,0,0,1-8.2-7.871,6.294,6.294,0,0,1-.675-6.317,3.866,3.866,0,0,1,3.632-2.362,5.178,5.178,0,0,1,.623.039,118.17,118.17,0,0,1,21.024,4.124l1,.317a104.128,104.128,0,0,0,21.541,4.62c3.694.358,7.44.539,11.135.539a110.436,110.436,0,0,0,33.375-5.089,96.9,96.9,0,0,0,16.843-7.179,103.553,103.553,0,0,0,15.255-10.132,108.268,108.268,0,0,0,24.252-27.3c7.019-11.267,11.672-24.011,14.225-38.96,2.453-14.362,2.683-29.15,2.584-41.72-.228-29.893-1.2-61.166-2.89-92.951l-.28-5.159c-.715-13.089-1.64-30.351-2.449-47.81-.269-5.848-.654-10.624-1.211-15.03a39.576,39.576,0,0,1-14.309-13.79,141.029,141.029,0,0,1-20.441,6.43,122.385,122.385,0,0,1-29.191,3.585,115.192,115.192,0,0,1-17.182-1.283c-4.14,1.71-8.423,3.236-12.73,4.536-1.2.53-2.372,1.042-3.5,1.523a212.419,212.419,0,0,1-31.93,10.98l-2.7.673a110.358,110.358,0,0,1-18.2,3.267,26.538,26.538,0,0,1-3.291,1.01,53.5,53.5,0,0,1-12.614,1.5c-1.507,0-3.032-.064-4.535-.189a8.47,8.47,0,0,1-6.809-4.393,6.954,6.954,0,0,1-.8-3.361,7.468,7.468,0,0,1,1.063-3.656c2.223-3.814,4.515-7.7,6.81-11.55a214.565,214.565,0,0,1-24.5,8.419c-7.393,2.082-15.461,4.046-25.391,6.18-2.254.481-4.55.941-6.77,1.387l-.008,0-.008,0c-2.255.453-4.587.921-6.873,1.409-.724.154-1.531.291-2.386.436-3.024.512-6.445,1.092-8.505,2.754-2.272,1.824-3.263,5.465-4.138,8.678-.248.912-.483,1.774-.732,2.532-1.555,4.676-2.889,9.014-4.08,13.26A275.4,275.4,0,0,0,89.65,200.5a259.542,259.542,0,0,0-3.231,27.6c-.243,3.81-.343,7.693-.44,11.448-.138,5.351-.281,10.884-.839,16.292a6.422,6.422,0,0,1-1.929,4.023,5.5,5.5,0,0,1-3.775,1.528,5.9,5.9,0,0,1-3.916-1.571c-.437-.385-.9-.8-1.364-1.213l-.676-.617a68.99,68.99,0,0,1-9.169-9.76c-.47-.646-.931-1.335-1.371-2.05a.328.328,0,0,1-.2-.069l-.734-.553c-7.713-5.742-14.351-8.653-19.73-8.653a11.913,11.913,0,0,0-9.756,4.785c-2.571,3.258-3.86,7.467-4.867,11.156l-1.874,7a121.649,121.649,0,0,0-3.02,13.849,53.032,53.032,0,0,0-.04,16.26,29.684,29.684,0,0,0,6.5,14.7,18.387,18.387,0,0,0,11.279,6.39,14.147,14.147,0,0,0,1.947.126,34.415,34.415,0,0,0,4.475-.394l.027,0q.456-.06.913-.119a15,15,0,0,1,1.871-.106c.661,0,1.33.031,1.976.061h.005c.651.03,1.324.061,1.991.061.562,0,1.064-.022,1.537-.067.153-.015.305-.023.453-.023a3.964,3.964,0,0,1,3.448,1.984,5.721,5.721,0,0,1,.308,5.369,18.167,18.167,0,0,1-2.81,4.15,32.426,32.426,0,0,1,2.471,2.38,12.33,12.33,0,0,1,6.009,4.49,10.188,10.188,0,0,1,2.04,5.56c.127.446.245.923.37,1.5l2.146,3.481c.526.852.988,1.59,1.414,2.258A108.707,108.707,0,0,0,90.14,364.5c2.683,2.443,5.5,4.83,8.219,7.139a183.861,183.861,0,0,1,13.711,12.452l.8.841a52.5,52.5,0,0,1,8.591,11.12c2.445,4.623,3.088,9.006,1.966,13.4a4.689,4.689,0,0,1-4.367,3.27,3.4,3.4,0,0,1-2.043-.66c-4.383-3.253-7.526-7.73-10.565-12.06a76.126,76.126,0,0,0-6.675-8.6c-3.244-3.446-6.722-6.77-10.086-9.984l0,0c-3.272-3.126-6.655-6.359-9.821-9.7A78.044,78.044,0,0,1,65.4,350.085a11.648,11.648,0,0,1-8.016,3.277,10.979,10.979,0,0,1-6.052-1.861,12.382,12.382,0,0,1-4.223-4.766,37.879,37.879,0,0,1-4.271,1.62,8.617,8.617,0,0,1-2.517.393,7.433,7.433,0,0,1-6.3-3.59,9.713,9.713,0,0,1-1.478-4.405,9.444,9.444,0,0,1,.8-4.738,30.273,30.273,0,0,1,5.809-8.68,36.826,36.826,0,0,1-19.821-9.63,40.67,40.67,0,0,1-11.188-21.54,60.016,60.016,0,0,1-1.1-12.283A77.3,77.3,0,0,1,8.19,271.595a121.654,121.654,0,0,1,7.25-25.11c.627-1.532,1.231-2.9,1.849-4.171a1.3,1.3,0,0,1-.99-.48c-.755-1.031-1.576-2.011-2.37-2.958a28.945,28.945,0,0,1-4.17-5.911c-.332-.682-.678-1.378-1.013-2.051a76.048,76.048,0,0,1-3.366-7.419c-2.615-7.059-3.752-14.963-4.45-21.06a158.58,158.58,0,0,1,1.18-42.75,170.791,170.791,0,0,1,9.426-35.324A173.628,173.628,0,0,1,28.118,91.949a11.606,11.606,0,0,1-2.06-1.38l-.319-.278-.518-.468a8.553,8.553,0,0,1-2.716-6.22,9.838,9.838,0,0,1,2.716-7.1l1.093-1.1a28.988,28.988,0,0,1,4.812-3.961c.323-.217.662-.426,1.008-.623a9.567,9.567,0,0,1-.76-7.479,9.927,9.927,0,0,1,5-6.127,17.589,17.589,0,0,1,8.3-1.832,29.707,29.707,0,0,1,12.379,2.823A160.043,160.043,0,0,1,89.509,35.715,310.548,310.548,0,0,1,133.8,17.02a382.367,382.367,0,0,1,46.481-12.4A211.134,211.134,0,0,1,222.145,0c1.919,0,3.842.035,5.715.1l1.229.048a140.719,140.719,0,0,1,19.4,1.822c7.586,1.375,13.556,3.564,18.249,6.693a2.286,2.286,0,0,1,1.6-.688,1.954,1.954,0,0,1,.849.193c11.52,5.5,24.119,9.59,36.3,13.548l2.9.942A177.356,177.356,0,0,0,348.6,30.835a8.341,8.341,0,0,1,3.992,1.438,8.081,8.081,0,0,1,2.732,3.1,6.289,6.289,0,0,1-.441,6.414c-.8,1.227-1.569,2.449-2.279,3.586l1.134-.119h.006c.861-.091,1.752-.185,2.627-.273.18-.018.364-.027.547-.027a7.369,7.369,0,0,1,5.222,2.5A7.73,7.73,0,0,1,364.386,53a74.571,74.571,0,0,1-.83,7.5h.03l.258,0a11.147,11.147,0,0,1,4.363.845c3.408,1.44,5.489,4.14,6.361,8.256.731,3.449.494,7.342.19,11.035-.869,10.526-4.908,20.378-11.082,27.031a42.951,42.951,0,0,1,6.4,8.552,46.562,46.562,0,0,1,4.236,10.179,48.059,48.059,0,0,1,1.96,16.681l-.134,1.673c-.546,6.379-1.641,12.871-5.917,17.147a9.3,9.3,0,0,1-6.693,2.856c-.31,0-.626-.016-.937-.046,1.6,14.077,2.642,28.492,3.57,42.05l.451,6.7c1.244,18.817,2.078,34.286,2.625,48.682.67,17.642.9,33.579.7,48.722a208.31,208.31,0,0,1-1.452,22.5,155.263,155.263,0,0,1-4.208,21.8,124.627,124.627,0,0,1-7.62,20.734,111.491,111.491,0,0,1-11.689,19.3,125.614,125.614,0,0,1-14.016,15.635,123.478,123.478,0,0,1-16.39,13.019,119.108,119.108,0,0,1-18.372,9.994A114.071,114.071,0,0,1,276.23,440.4,116.407,116.407,0,0,1,250.311,443.271ZM63,290.8l-.165,0a10.766,10.766,0,0,1-6.9-2.776,34.718,34.718,0,0,1-5-5.842c-.505-.685-1.027-1.392-1.553-2.072a6.867,6.867,0,0,1-1.67,2.04l-.46.36a8.407,8.407,0,0,1-5.027,2.036c-.092,0-.184,0-.273-.006a9.849,9.849,0,0,1-4.12-1.111,7.465,7.465,0,0,1-3.4-3.97,8.549,8.549,0,0,1,3.056-10.16l-.6-.413a12.088,12.088,0,0,1-3.389-3.245l-.207-.331h.08a3.241,3.241,0,0,1,1.861-4.78,9.719,9.719,0,0,1,3.016-.448c4.238,0,8.953,2.193,12.743,3.954.38.177.772.359,1.152.533,6.036,2.77,11.242,6.957,15.97,11.07,2.147,1.874,3,5.1,2.28,8.63l-.036.178c-.048.242-.1.491-.155.742a6.838,6.838,0,0,1-2.672,3.981A7.7,7.7,0,0,1,63,290.8Z" transform="translate(48 65.001)"></path></g></g><g transform="translate(159 186)"><g><path d="M158.318 0.693899C152.624 -0.294101 146.406 -0.326101 140.801 1.2469C136.392 2.4829 129.461 5.2939 127.556 9.7969C127.172 10.7059 127.178 12.1069 128.286 12.5789C129.782 13.0739 132.392 13.3339 132.12 12.7759C133.404 12.6387 134.699 12.3881 136.002 12.1362C138.05 11.74 140.115 11.3407 142.172 11.3749C146.542 11.4479 150.621 12.2129 154.693 13.8459C158.359 15.3159 161.795 17.4139 164.72 20.0749C168.265 23.2989 170.235 28.1409 174.422 30.5579C179.558 33.5219 185.507 29.6969 185.778 24.0419C186.103 17.2698 180.049 11.7076 174.976 7.88481L174.436 7.4819C169.789 4.0409 164.01 1.6819 158.318 0.693899ZM11.2575 13.4754C20.3265 5.4474 36.8055 -2.3056 49.0345 1.6454C56.0655 3.9164 59.1305 15.2454 51.2815 18.8364C42.1925 22.9944 31.7135 21.3024 22.4625 25.6124C18.5775 27.4234 14.9235 29.6864 12.2185 33.0054C10.0875 35.6214 7.91949 39.0634 4.83749 40.5714C4.02749 40.9684 2.93049 40.9784 2.28149 40.2424C-4.47451 32.6004 5.35849 18.6964 11.2575 13.4754ZM183.351 63.4506C187.073 48.5286 170.526 33.8726 156.389 35.0376C149.225 35.6286 142.842 39.7526 138.922 45.7026C136.183 49.8606 133.59 58.1526 137.91 62.1356C138.52 62.6976 139.347 62.6636 139.965 62.1356C142.475 59.9866 143.924 56.4336 146.347 54.0056C149.03 51.3166 152.561 49.4036 156.389 49.1456C159.862 48.9116 163.093 50.4356 165.367 53.0596C168.122 56.2376 168.018 59.6236 169.057 63.4506C170.945 70.4056 181.566 70.6106 183.351 63.4506ZM38.1784 39.9406C45.5584 38.6316 53.1184 40.4666 59.2254 44.7846L59.6882 45.1175C65.5717 49.4203 72.1545 56.9758 68.7784 64.3926C67.4234 67.3706 63.3654 67.8376 60.7904 66.4876C56.5034 64.2396 55.7264 58.7086 51.9014 55.6476C48.7644 53.1386 44.5404 51.6166 40.5004 51.9836C31.0094 52.8456 25.1714 62.2066 22.2234 70.2736C21.8464 71.3056 20.3314 71.7066 19.7394 70.5986C12.7884 57.6066 25.0924 42.2626 38.1784 39.9406ZM129.748 109.04C137.871 97.6606 126.365 86.9575 118.814 82.3675C116.836 80.9475 118.406 76.2437 122.633 76.9707C161.03 83.5677 141.135 149.708 92.1117 113.413C86.2751 108.705 93.3431 98.3342 99.6339 102.366C99.9529 102.611 100.287 102.87 100.636 103.139C107.704 108.604 120.635 118.602 129.748 109.04ZM74.1496 134.293C79.7437 125.091 91.6675 147.632 92.9344 151.508C94.0565 154.942 94.7972 158.459 95.1736 162.017C99.5106 162.989 104.014 162.991 108.458 162.139C115.063 160.872 119.1 157.322 124.84 154.273C128.805 152.166 133.802 154.636 135.864 158.13C138.289 162.243 136.744 166.511 133.554 169.577C127.505 175.391 115.603 176.727 107.707 175.183C103.183 174.299 99.0371 172.602 95.3756 170.136C95.3514 170.597 95.3352 171.057 95.2989 171.516L95.229 172.313C94.6223 178.761 92.85 186.869 87.8417 191.065C79.6274 197.947 69.4898 184.711 77.4715 177.836L77.7189 177.63C82.6801 173.621 83.7624 162.866 83.4952 156.943C83.3201 153.076 82.6158 149.16 81.395 145.478L81.144 144.745C80.7765 143.704 76.7699 133.837 75.3221 135.094L75.253 135.165C74.6559 135.877 73.6911 135.047 74.1496 134.293Z" transform="translate(52.00031 61.9997)" fill="#000000" fill-rule="evenodd" stroke="none"></path></g></g><g transform="translate(123 338)"></g><g transform="translate(47 241)"><g><path d="M400.241 22.4717C406.555 19.4817 413.812 19.6607 420.603 20.5487C434.349 26.9267 404.861 34.3147 401.349 27.5287C404.801 52.9717 394.935 94.8897 366.724 108.133C334.13 124.07 298.773 99.8287 300.056 60.9787C293.067 59.2817 297.925 39.7137 300.739 31.7647C288.447 29.8527 276.738 28.7257 264.894 32.4797C271.42 50.8857 248.187 106.288 225.854 117.325C208.541 129.283 169.496 123.951 153.944 105.365C142.844 91.1707 137.3 58.2287 143.442 35.3387C143.388 35.3147 143.332 35.2967 143.279 35.2697C142.912 38.8697 118.056 38.4687 119.298 32.3037C83.5946 32.9447 49.0266 38.4207 13.6856 42.2807C9.41771 42.6777 9.20869 45.7037 9.00443 48.6607C8.82951 51.1931 8.65807 53.675 5.94363 54.4117C-4.52237 54.6617 0.226628 36.3637 9.44663 34.6657C18.2509 33.7459 27.1162 32.5506 36.011 31.3514C64.1217 27.5615 92.5269 23.7319 120.232 28.4287C124.112 23.4993 131.1 25.2524 136.795 26.6809C138.398 27.083 139.898 27.4593 141.198 27.6537C145.902 -0.109269 221.595 1.54173 246.677 12.8057C273.452 9.72473 301.309 7.96173 327.861 5.72573C344.673 0.333732 364.25 -2.44827 381.745 2.80973C384.166 2.67632 384.439 3.06209 384.978 3.82285C385.074 3.95736 385.177 4.10358 385.303 4.26073C392.194 7.30073 398.297 14.2087 400.241 22.4717ZM391.09 53.2827C381.556 117.772 315.002 124.904 303.177 60.8817C305.075 60.0507 306.44 58.4147 306.155 55.2387C306.088 41.2867 310.419 26.5407 323.005 18.7817C336.011 10.7757 351.232 9.98173 366.283 10.1837C395.005 9.49973 394.401 33.5067 391.09 53.2827ZM264.265 30.6657C272.34 25.1737 283.744 24.8557 292.758 25.2357C295.861 25.4177 300.059 25.2717 302.99 26.8347C306.149 20.6497 311.009 15.2997 316.233 11.7387C313.192 11.9693 310.141 12.2092 307.085 12.4496C288.207 13.9342 269.092 15.4374 250.449 14.8917C256.277 18.3047 262.045 24.6877 264.265 30.6657ZM253.026 60.1197C228.031 146.156 165.64 108.656 158.838 97.6297C146.569 79.3837 144.261 35.0297 154.948 23.1707C167.469 14.393 184.251 14.6491 199.84 14.8869C203.297 14.9396 206.695 14.9915 209.975 14.9437C243.176 15.3917 266.756 25.3237 253.026 60.1197Z" transform="translate(-1.999528 9.999668)" fill="#000000" fill-rule="evenodd" stroke="none"></path></g></g></g></g></svg>